<?xml version="1.0" encoding="UTF-8" standalone="no"?>
<!-- Created with Inkscape (http://www.inkscape.org/) -->

<svg
   xmlns:dc="http://purl.org/dc/elements/1.1/"
   xmlns:cc="http://creativecommons.org/ns#"
   xmlns:rdf="http://www.w3.org/1999/02/22-rdf-syntax-ns#"
   xmlns:svg="http://www.w3.org/2000/svg"
   xmlns="http://www.w3.org/2000/svg"
   xmlns:sodipodi="http://sodipodi.sourceforge.net/DTD/sodipodi-0.dtd"
   xmlns:inkscape="http://www.inkscape.org/namespaces/inkscape"
   width="439.15625"
   height="104.96875"
   id="svg2"
   version="1.1"
   inkscape:version="0.48.4 r9939"
   sodipodi:docname="New document 1">
  <defs
     id="defs4" />
  <sodipodi:namedview
     id="base"
     pagecolor="#ffffff"
     bordercolor="#666666"
     borderopacity="1.0"
     inkscape:pageopacity="0.0"
     inkscape:pageshadow="2"
     inkscape:zoom="0.7075"
     inkscape:cx="180.44768"
     inkscape:cy="47.676934"
     inkscape:document-units="px"
     inkscape:current-layer="layer1"
     showgrid="false"
     fit-margin-top="0"
     fit-margin-left="0"
     fit-margin-right="0"
     fit-margin-bottom="0"
     inkscape:window-width="1920"
     inkscape:window-height="998"
     inkscape:window-x="0"
     inkscape:window-y="30"
     inkscape:window-maximized="1" />
  <metadata
     id="metadata7">
    <rdf:RDF>
      <cc:Work
         rdf:about="">
        <dc:format>image/svg+xml</dc:format>
        <dc:type
           rdf:resource="http://purl.org/dc/dcmitype/StillImage" />
        <dc:title></dc:title>
      </cc:Work>
    </rdf:RDF>
  </metadata>
  <g
     inkscape:label="Layer 1"
     inkscape:groupmode="layer"
     id="layer1"
     transform="translate(-165.7204,-426.18452)">
    <path
       style="font-size:40px;font-style:normal;font-variant:normal;font-weight:normal;font-stretch:normal;line-height:100.99999905%;letter-spacing:0px;word-spacing:0px;fill:#ffffaf;fill-opacity:1;stroke:none;font-family:SFNS Display;-inkscape-font-specification:SFNS Display"
       d="m 186.7829,502.99702 c -0.26022,-0.80532 -0.49615,-1.6215 -0.59375,-2.5 l -20.46875,0 c 0.10219,3.47459 0.86986,6.60779 1.9375,9.5625 l 19.125,-7.0625 z"
       id="path3012"
       inkscape:connector-curvature="0" />
    <path
       style="font-size:40px;font-style:normal;font-variant:normal;font-weight:normal;font-stretch:normal;line-height:100.99999905%;letter-spacing:0px;word-spacing:0px;fill:#ffffaf;fill-opacity:1;stroke:none;font-family:SFNS Display;-inkscape-font-specification:SFNS Display"
       d="m 242.12665,482.55952 c -0.54209,-0.66063 -1.02628,-1.36345 -1.65625,-1.96875 -2.3907,-2.3437 -5.42195,-4.32807 -9.125,-5.96875 -3.65632,-1.68744 -8.03131,-3.07807 -13.09375,-4.15625 l -12.28125,-2.59375 c -5.85941,-1.31244 -10.12503,-2.92181 -12.75,-4.84375 -2.57815,-1.92181 -3.87503,-4.45305 -3.875,-7.59375 -3e-5,-1.87492 0.43747,-3.6093 1.28125,-5.15625 0.84372,-1.54679 2.03122,-2.85929 3.53125,-3.9375 1.54684,-1.07804 3.37496,-1.92179 5.53125,-2.53125 2.15621,-0.60929 4.56246,-0.90616 7.1875,-0.90625 2.67183,9e-5 5.10932,0.34384 7.3125,1 2.24994,0.60946 4.20307,1.50008 5.84375,2.71875 1.64056,1.17196 2.95306,2.62508 3.9375,4.3125 0.98431,1.68758 1.56244,3.59382 1.75,5.75 l 19.875,0 c -0.0938,-4.59367 -1.04696,-8.74992 -2.875,-12.5 -1.8282,-3.74991 -4.43758,-6.98428 -7.8125,-9.65625 -3.3282,-2.67178 -7.37507,-4.73428 -12.15625,-6.1875 -4.73443,-1.45302 -10.06255,-2.15615 -15.96875,-2.15625 -5.67192,10e-5 -10.85941,0.7501 -15.59375,2.25 -4.7344,1.45322 -8.84377,3.53135 -12.3125,6.25 -3.42189,2.71884 -6.07814,6.00009 -8,9.84375 -1.92188,3.79696 -2.90626,8.03133 -2.90625,12.71875 -1e-5,14.90631 9.32811,24.35942 27.9375,28.34375 l 13.21875,2.875 c 3.76002,0.83881 6.6231,1.84887 9.0625,2.9375 l 23.9375,-8.84375 z"
       id="path3010"
       inkscape:connector-curvature="0" />
    <path
       style="font-size:40px;font-style:normal;font-variant:normal;font-weight:normal;font-stretch:normal;line-height:100.99999905%;letter-spacing:0px;word-spacing:0px;fill:#419bff;fill-opacity:1;stroke:none;font-family:SFNS Display;-inkscape-font-specification:SFNS Display"
       d="m 242.12665,482.55952 -23.9375,8.84375 c 1.51403,0.67566 2.99469,1.3531 4,2.125 2.67181,2.01566 4.03118,4.65628 4.03125,7.9375 -7e-5,1.87503 -0.50006,3.62502 -1.4375,5.21875 -0.89069,1.5469 -2.15631,2.89064 -3.84375,4.0625 -1.68756,1.12502 -3.71881,2.03127 -6.0625,2.6875 -2.3438,0.60939 -4.9063,0.90627 -7.71875,0.90625 -2.81254,2e-5 -5.43754,-0.31248 -7.875,-0.96875 -2.43754,-0.65623 -4.59378,-1.59373 -6.46875,-2.8125 -1.82815,-1.21873 -3.32815,-2.68748 -4.5,-4.375 -0.68384,-0.98469 -1.16665,-2.05914 -1.53125,-3.1875 l -19.125,7.0625 c 0.4015,1.11118 0.71195,2.27485 1.25,3.3125 1.96874,3.75001 4.70311,6.95313 8.21875,9.625 3.51561,2.625 7.73435,4.625 12.65625,6.03125 4.92184,1.40625 10.43746,2.125 16.53125,2.125 6.2812,0 11.93744,-0.75 17,-2.25 5.10931,-1.5 9.46868,-3.64062 13.03125,-6.40625 3.56242,-2.81249 6.29679,-6.18749 8.21875,-10.125 1.92179,-3.98435 2.87491,-8.42185 2.875,-13.34375 -9e-5,-3.84372 -0.56259,-7.29684 -1.6875,-10.34375 -0.8286,-2.27844 -2.11002,-4.27874 -3.625,-6.125 z"
       id="path3008"
       inkscape:connector-curvature="0" />
    <path
       style="font-size:40px;font-style:normal;font-variant:normal;font-weight:normal;font-stretch:normal;line-height:100.99999905%;letter-spacing:0px;word-spacing:0px;fill:#ffffaf;fill-opacity:1;stroke:none;font-family:SFNS Display;-inkscape-font-specification:SFNS Display"
       d="m 299.50165,501.43452 0,-56 29.75,0 0,-17.5 -80.65625,0 0,17.5 29.65625,0 0,44.21875 21.25,11.78125 z"
       id="path3006"
       inkscape:connector-curvature="0" />
    <path
       style="font-size:40px;font-style:normal;font-variant:normal;font-weight:normal;font-stretch:normal;line-height:100.99999905%;letter-spacing:0px;word-spacing:0px;fill:#419bff;fill-opacity:1;stroke:none;font-family:SFNS Display;-inkscape-font-specification:SFNS Display"
       d="m 299.50165,501.43452 -21.25,-11.78125 0,39.75 21.25,0 0,-27.96875 z"
       id="path3004"
       inkscape:connector-curvature="0" />
    <path
       style="font-size:40px;font-style:normal;font-variant:normal;font-weight:normal;font-stretch:normal;line-height:100.99999905%;letter-spacing:0px;word-spacing:0px;fill:#ffffaf;fill-opacity:1;stroke:none;font-family:SFNS Display;-inkscape-font-specification:SFNS Display"
       d="m 420.7829,459.90327 c -0.28608,-0.97715 -0.41509,-2.05673 -0.75,-3 -2.2501,-6.51555 -5.48447,-12.04679 -9.75,-16.59375 -4.21884,-4.54678 -9.35946,-8.03115 -15.40625,-10.46875 -6.04694,-2.4374 -12.81256,-3.65615 -20.3125,-3.65625 -7.54692,10e-5 -14.35941,1.21885 -20.40625,3.65625 -6.00003,2.4376 -11.14065,5.92197 -15.40625,10.46875 -4.21876,4.54696 -7.45314,10.0782 -9.75,16.59375 -2.25001,6.46882 -3.37501,13.71881 -3.375,21.78125 0,6.80509 0.99085,12.9241 2.59375,18.59375 l 19.375,-13.375 c -0.1494,-1.70371 -0.31251,-3.39882 -0.3125,-5.21875 -3e-5,-5.34369 0.60935,-10.14056 1.875,-14.40625 1.31247,-4.31243 3.15622,-7.96868 5.5,-10.96875 2.39059,-3.0468 5.23434,-5.37492 8.5625,-6.96875 3.37495,-1.64054 7.17182,-2.43741 11.34375,-2.4375 4.12494,9e-5 7.87494,0.79696 11.25,2.4375 2.95639,1.39617 5.42858,3.45765 7.59375,5.96875 l 5.6875,-3.90625 21.6875,11.5 z"
       id="path3002"
       inkscape:connector-curvature="0" />
    <path
       style="font-size:40px;font-style:normal;font-variant:normal;font-weight:normal;font-stretch:normal;line-height:100.99999905%;letter-spacing:0px;word-spacing:0px;fill:#419bff;fill-opacity:1;stroke:none;font-family:SFNS Display;-inkscape-font-specification:SFNS Display"
       d="m 420.7829,459.90327 -21.6875,-11.5 -5.6875,3.90625 c 0.30653,0.3555 0.67808,0.62215 0.96875,1 2.34367,3.00007 4.14055,6.65632 5.40625,10.96875 1.31242,4.26569 1.96867,9.06256 1.96875,14.40625 -8e-5,5.29692 -0.65633,10.12504 -1.96875,14.4375 -1.2657,4.26566 -3.06258,7.87503 -5.40625,10.875 -2.34382,3.00002 -5.18757,5.32815 -8.5625,6.96875 -3.37506,1.59377 -7.12506,2.40627 -11.25,2.40625 -4.17193,2e-5 -7.9688,-0.81248 -11.34375,-2.40625 -3.32816,-1.6406 -6.17191,-3.96873 -8.5625,-6.96875 -2.34378,-2.99997 -4.18753,-6.60934 -5.5,-10.875 -0.8308,-2.83077 -1.27706,-5.96379 -1.5625,-9.21875 l -19.375,13.375 c 0.29619,1.04764 0.43034,2.20988 0.78125,3.21875 2.29686,6.46877 5.53124,11.98439 9.75,16.53125 4.2656,4.54688 9.40622,8.03125 15.40625,10.46875 6.04684,2.4375 12.85933,3.65625 20.40625,3.65625 7.49994,0 14.26556,-1.21875 20.3125,-3.65625 6.04679,-2.4375 11.18741,-5.92187 15.40625,-10.46875 4.26553,-4.54686 7.4999,-10.06248 9.75,-16.53125 2.29677,-6.46871 3.46865,-13.74996 3.46875,-21.8125 -9e-5,-6.88679 -1.04295,-13.05721 -2.71875,-18.78125 z"
       id="path3000"
       inkscape:connector-curvature="0" />
    <path
       style="font-size:40px;font-style:normal;font-variant:normal;font-weight:normal;font-stretch:normal;line-height:100.99999905%;letter-spacing:0px;word-spacing:0px;fill:#ffffaf;fill-opacity:1;stroke:none;font-family:SFNS Display;-inkscape-font-specification:SFNS Display"
       d="m 487.9079,489.12202 -11.5,-16.1875 37.53125,-45 -23.625,0 -38.09375,46.25 -0.65625,0 0,-46.25 -21.21875,0 0,37.03125 51.75,27.4375 5.8125,-3.28125 z"
       id="path2998"
       inkscape:connector-curvature="0" />
    <path
       style="font-size:40px;font-style:normal;font-variant:normal;font-weight:normal;font-stretch:normal;line-height:100.99999905%;letter-spacing:0px;word-spacing:0px;fill:#419bff;fill-opacity:1;stroke:none;font-family:SFNS Display;-inkscape-font-specification:SFNS Display"
       d="m 487.9079,489.12202 -5.8125,3.28125 -51.75,-27.4375 0,64.4375 21.21875,0 0,-31.03125 9.5,-11.375 30.09375,42.40625 25.375,0 -28.625,-40.28125 z"
       id="path2996"
       inkscape:connector-curvature="0" />
    <path
       style="font-size:40px;font-style:normal;font-variant:normal;font-weight:normal;font-stretch:normal;line-height:100.99999905%;letter-spacing:0px;word-spacing:0px;fill:#ffffaf;fill-opacity:1;stroke:none;font-family:SFNS Display;-inkscape-font-specification:SFNS Display"
       d="m 539.9079,459.62202 0,-31.6875 -21.21875,0 0,43.71875 21.21875,-12.03125 z"
       id="path2994"
       inkscape:connector-curvature="0" />
    <path
       style="font-size:40px;font-style:normal;font-variant:normal;font-weight:normal;font-stretch:normal;line-height:100.99999905%;letter-spacing:0px;word-spacing:0px;fill:#ffffaf;fill-opacity:1;stroke:none;font-family:SFNS Display;-inkscape-font-specification:SFNS Display"
       d="m 595.81415,427.93452 -17.15625,0 -15.03125,18.25 32.1875,-18.25 z"
       id="path2992"
       inkscape:connector-curvature="0" />
    <path
       style="font-size:40px;font-style:normal;font-variant:normal;font-weight:normal;font-stretch:normal;line-height:100.99999905%;letter-spacing:0px;word-spacing:0px;fill:#419bff;fill-opacity:1;stroke:none;font-family:SFNS Display;-inkscape-font-specification:SFNS Display"
       d="m 595.81415,427.93452 -32.1875,18.25 -23.0625,28 -0.65625,0 0,-14.5625 -21.21875,12.03125 0,57.75 21.21875,0 0,-31.03125 9.5,-11.375 30.09375,42.40625 25.375,0 -40.125,-56.46875 37.53125,-45 -6.46875,0 z"
       id="text2985"
       inkscape:connector-curvature="0" />
  </g>
</svg>
