<?xml version="1.0" encoding="UTF-8" standalone="no"?>
<!-- Created with Inkscape (http://www.inkscape.org/) -->

<svg
   xmlns:dc="http://purl.org/dc/elements/1.1/"
   xmlns:cc="http://creativecommons.org/ns#"
   xmlns:rdf="http://www.w3.org/1999/02/22-rdf-syntax-ns#"
   xmlns:svg="http://www.w3.org/2000/svg"
   xmlns="http://www.w3.org/2000/svg"
   xmlns:sodipodi="http://sodipodi.sourceforge.net/DTD/sodipodi-0.dtd"
   xmlns:inkscape="http://www.inkscape.org/namespaces/inkscape"
   width="110.00001"
   height="95.390678"
   id="svg2"
   version="1.1"
   inkscape:version="0.48.4 r9939"
   sodipodi:docname="iconlogo.svg">
  <defs
     id="defs4" />
  <sodipodi:namedview
     id="base"
     pagecolor="#ffffff"
     bordercolor="#666666"
     borderopacity="1.0"
     inkscape:pageopacity="0.0"
     inkscape:pageshadow="2"
     inkscape:zoom="8.12"
     inkscape:cx="3.5383389"
     inkscape:cy="43.32652"
     inkscape:document-units="px"
     inkscape:current-layer="layer1"
     showgrid="false"
     fit-margin-top="0"
     fit-margin-left="0"
     fit-margin-right="0"
     fit-margin-bottom="0"
     inkscape:window-width="1920"
     inkscape:window-height="998"
     inkscape:window-x="0"
     inkscape:window-y="30"
     inkscape:window-maximized="1" />
  <metadata
     id="metadata7">
    <rdf:RDF>
      <cc:Work
         rdf:about="">
        <dc:format>image/svg+xml</dc:format>
        <dc:type
           rdf:resource="http://purl.org/dc/dcmitype/StillImage" />
        <dc:title />
      </cc:Work>
    </rdf:RDF>
  </metadata>
  <g
     inkscape:label="Layer 1"
     inkscape:groupmode="layer"
     id="layer1"
     transform="translate(-285.7204,-428.26259)">
    <path
       style="fill:#333333;fill-opacity:1;stroke:#1a00e5;stroke-width:0;stroke-miterlimit:4;stroke-opacity:1;stroke-dasharray:none"
       d="m 168.4375,19.4375 c 2.06705,-0.564557 4.34278,-0.874912 6.84375,-0.875 1.30782,4.5e-5 2.55688,0.08556 3.75,0.25 0.80933,0.111543 1.55595,0.315768 2.3125,0.5 -1.22146,-2.101599 -6.00953,-10.3528063 -6.0625,-10.4375 L 174.875,8.25 168.4375,19.4375 z"
       id="path3863"
       transform="translate(165.7204,426.18452)"
       inkscape:connector-curvature="0" />
    <g
       id="g3957"
       transform="matrix(1.1000006,0,0,1.1000006,-167.54897,-28.961357)"
       style="fill:#1a1c22;fill-opacity:1">
      <path
         id="path3863-9"
         d="m 455.50029,426.84541 c 2.06705,-0.56456 4.34278,-0.87491 6.84375,-0.875 1.30782,5e-5 2.55688,0.0856 3.75,0.25 0.80933,0.11154 1.55595,0.31577 2.3125,0.5 -1.22146,-2.1016 -6.00953,-10.35281 -6.0625,-10.4375 l -0.40625,-0.625 -6.4375,11.1875 z"
         style="fill:#1a1c22;fill-opacity:1;stroke:#1a00e5;stroke-width:0;stroke-miterlimit:4;stroke-opacity:1;stroke-dasharray:none"
         inkscape:connector-curvature="0" />
      <path
         id="path3879-4"
         d="m 425.09404,494.72041 c -0.45563,-0.95519 -0.76218,-1.99587 -1.125,-3 -0.52259,-1.44628 -0.98147,-2.91517 -1.3125,-4.46875 -0.18681,-0.87672 -0.24023,-1.82918 -0.34375,-2.75 -2.80419,4.87708 -9.30567,16.21269 -9.46875,16.5 l -0.6875,1.1875 12.9375,-7.46875 z"
         style="fill:#1a1c22;fill-opacity:1;stroke:#1a00e5;stroke-width:0;stroke-miterlimit:4;stroke-opacity:1;stroke-dasharray:none"
         inkscape:connector-curvature="0" />
      <path
         id="path3877-0"
         d="m 425.09404,494.72041 -12.9375,7.46875 -0.0937,0.1875 19,-0.0312 c -0.81675,-0.75796 -1.72732,-1.4495 -2.4375,-2.28125 -1.34034,-1.56979 -2.47384,-3.25818 -3.4375,-5.09375 -0.0405,-0.0781 -0.0558,-0.1704 -0.0937,-0.25 z"
         style="fill:#1a1c22;fill-opacity:1;stroke:#1a00e5;stroke-width:0;stroke-miterlimit:4;stroke-opacity:1;stroke-dasharray:none"
         inkscape:connector-curvature="0" />
      <path
         id="path3875-9"
         d="m 466.12529,471.03291 c -0.54225,-0.13879 -0.97545,-0.30654 -1.5625,-0.4375 l -12.9375,-2.8125 c -2.27725,-0.48757 -4.41303,-1.06391 -6.40625,-1.71875 -1.99322,-0.65484 -3.85349,-1.39669 -5.5625,-2.21875 -1.49264,-0.71798 -2.81804,-1.52951 -4.09375,-2.375 -6.19221,10.76369 -8.10208,14.12753 -12,20.90625 l 18.53125,0 c 0.0869,0.78209 0.30247,1.50116 0.53125,2.21875 l 23.5,-13.5625 z"
         style="fill:#1a1c22;fill-opacity:1;stroke:#1a00e5;stroke-width:0;stroke-miterlimit:4;stroke-opacity:1;stroke-dasharray:none"
         inkscape:connector-curvature="0" />
      <path
         id="path3873-4"
         d="m 466.12529,471.03291 -23.5,13.5625 c 0.0228,0.0715 0.0394,0.14731 0.0625,0.21875 0.35693,1.10462 0.83054,2.16102 1.5,3.125 0.5736,0.82601 1.23452,1.5974 1.96875,2.3125 0.73423,0.71511 1.54265,1.3722 2.4375,1.96875 0.91777,0.59657 1.88205,1.13486 2.9375,1.59375 1.05545,0.45889 2.18186,0.83504 3.375,1.15625 1.1931,0.32124 2.43385,0.56196 3.71875,0.71875 1.2849,0.15679 2.6233,0.21876 4,0.21875 2.75329,2e-5 5.268,-0.27843 7.5625,-0.875 1.1472,-0.32121 2.22831,-0.71648 3.21875,-1.15625 0.99044,-0.43977 1.89272,-0.91807 2.71875,-1.46875 0.82597,-0.5736 1.53101,-1.18218 2.15625,-1.84375 0.62524,-0.66157 1.15777,-1.39907 1.59375,-2.15625 0.45886,-0.7801 0.82541,-1.58473 1.0625,-2.4375 0.23709,-0.85277 0.34372,-1.73845 0.34375,-2.65625 -2e-5,-0.80305 -0.0844,-1.55635 -0.25,-2.28125 -0.16564,-0.7249 -0.38892,-1.41527 -0.71875,-2.0625 -0.32983,-0.64723 -0.75742,-1.27372 -1.25,-1.84375 -0.49258,-0.57003 -1.06484,-1.10043 -1.71875,-1.59375 -0.98417,-0.75567 -2.42406,-1.40105 -3.90625,-2.0625 -1.19405,-0.53287 -2.50941,-1.04818 -3.96875,-1.53125 -0.99386,-0.32898 -2.18598,-0.60991 -3.34375,-0.90625 z m 35.625,13.1875 c -0.11663,1.20119 -0.13002,2.45585 -0.375,3.59375 -0.46845,2.17591 -1.18431,4.23722 -2.125,6.1875 -0.94077,1.92735 -2.09716,3.69174 -3.4375,5.34375 -0.82064,1.01146 -1.87216,1.873 -2.84375,2.78125 l 19.09375,-0.0937 -10.3125,-17.8125 z"
         style="fill:#1a1c22;fill-opacity:1;stroke:#1a00e5;stroke-width:0;stroke-miterlimit:4;stroke-opacity:1;stroke-dasharray:none"
         inkscape:connector-curvature="0" />
      <path
         id="path3861-2"
         d="m 462.34404,425.97041 c -2.50097,9e-5 -4.7767,0.31044 -6.84375,0.875 l -9.125,15.875 c 0.28237,0.49579 0.54971,0.99164 0.9375,1.4375 0.47395,0.54492 1.02527,1.0609 1.65625,1.53125 1.28488,0.94076 2.98028,1.80408 5.0625,2.59375 2.08222,0.78967 4.56941,1.51383 7.4375,2.15625 l 12.03125,2.53125 c 2.47798,0.52775 4.76859,1.13372 6.90625,1.8125 1.99045,0.63203 3.811,1.33398 5.5,2.09375 -9.25789,-15.97129 -13.97174,-24.08565 -17.5,-30.15625 -0.75655,-0.18423 -1.50317,-0.38846 -2.3125,-0.5 -1.19312,-0.16444 -2.44218,-0.24995 -3.75,-0.25 z"
         style="fill:#1a1c22;fill-opacity:1;stroke:#1a00e5;stroke-width:0;stroke-miterlimit:4;stroke-opacity:1;stroke-dasharray:none"
         inkscape:connector-curvature="0" />
      <path
         id="path3833-2"
         d="m 435.56279,461.47041 c 1.27571,0.84549 2.60111,1.65702 4.09375,2.375 1.70901,0.82206 3.56928,1.56391 5.5625,2.21875 1.99322,0.65484 4.129,1.23118 6.40625,1.71875 l 12.9375,2.8125 c 1.84047,0.41058 3.44691,0.86068 4.90625,1.34375 1.45934,0.48307 2.7747,0.99838 3.96875,1.53125 1.48219,0.66145 2.92208,1.30683 3.90625,2.0625 0.65391,0.49332 1.22617,1.02372 1.71875,1.59375 0.49258,0.57003 0.92017,1.19652 1.25,1.84375 0.32983,0.64723 0.55311,1.3376 0.71875,2.0625 0.16564,0.7249 0.24998,1.4782 0.25,2.28125 -3e-5,0.9178 -0.10666,1.80348 -0.34375,2.65625 -0.23709,0.85277 -0.60364,1.6574 -1.0625,2.4375 -0.43598,0.75718 -0.96851,1.49468 -1.59375,2.15625 -0.62524,0.66157 -1.33028,1.27015 -2.15625,1.84375 -0.82603,0.55068 -1.72831,1.02898 -2.71875,1.46875 -0.99044,0.43977 -2.07155,0.83504 -3.21875,1.15625 -2.2945,0.59657 -4.80921,0.87502 -7.5625,0.875 -1.3767,10e-6 -2.7151,-0.062 -4,-0.21875 -1.2849,-0.15679 -2.52565,-0.39751 -3.71875,-0.71875 -1.19314,-0.32121 -2.31955,-0.69736 -3.375,-1.15625 -1.05545,-0.45889 -2.01973,-0.99718 -2.9375,-1.59375 -0.89485,-0.59655 -1.70327,-1.25364 -2.4375,-1.96875 -0.73423,-0.7151 -1.39515,-1.48649 -1.96875,-2.3125 -0.66946,-0.96398 -1.14307,-2.02038 -1.5,-3.125 -0.25474,-0.78839 -0.4982,-1.57748 -0.59375,-2.4375 l -18.53125,0 c -0.39864,0.69326 -0.88661,1.49299 -1.25,2.125 0.10352,0.92082 0.15694,1.87328 0.34375,2.75 0.33103,1.55358 0.78991,3.02247 1.3125,4.46875 0.39305,1.08781 0.69202,2.23418 1.21875,3.25 0.96366,1.83557 2.09716,3.52396 3.4375,5.09375 0.71018,0.83175 1.62075,1.52329 2.4375,2.28125 l 8.65625,0 c 15.21016,-0.0186 37.71016,-0.1089 50,-0.1875 l 3.25,-0.0312 c 0.97159,-0.90825 2.02311,-1.76979 2.84375,-2.78125 1.34034,-1.65201 2.49673,-3.4164 3.4375,-5.34375 0.94069,-1.95028 1.65655,-4.01159 2.125,-6.1875 0.24498,-1.1379 0.25837,-2.39256 0.375,-3.59375 l -14.34375,-24.75 c -0.81395,-1.40435 -0.70442,-1.22125 -1.5,-2.59375 -1.689,-0.75977 -3.50955,-1.46172 -5.5,-2.09375 -2.13766,-0.67878 -4.42827,-1.28475 -6.90625,-1.8125 l -12.03125,-2.53125 c -2.86809,-0.64242 -5.35528,-1.36658 -7.4375,-2.15625 -2.08222,-0.78967 -3.77762,-1.65299 -5.0625,-2.59375 -0.63098,-0.47035 -1.1823,-0.98633 -1.65625,-1.53125 -0.38779,-0.44586 -0.65513,-0.94171 -0.9375,-1.4375 l -8.59375,14.90625 c -1.17866,2.0487 -1.07868,1.862 -2.21875,3.84375 z"
         style="fill:#1a1c22;fill-opacity:1;stroke:#1a00e5;stroke-width:0;stroke-miterlimit:4;stroke-opacity:1;stroke-dasharray:none"
         inkscape:connector-curvature="0" />
    </g>
    <path
       style="fill:#4b9bff;fill-opacity:1;stroke:#1a00e5;stroke-width:0;stroke-miterlimit:4;stroke-opacity:1;stroke-dasharray:none"
       d="m 138.03125,87.3125 -12.9375,7.46875 -0.0937,0.1875 19,-0.03125 c -0.81675,-0.757961 -1.72732,-1.449496 -2.4375,-2.28125 -1.34034,-1.56979 -2.47384,-3.25818 -3.4375,-5.09375 -0.0405,-0.07814 -0.0558,-0.170401 -0.0937,-0.25 z"
       id="path3877"
       transform="translate(165.7204,426.18452)"
       inkscape:connector-curvature="0" />
    <path
       style="fill:#4b9bff;fill-opacity:1;stroke:#1a00e5;stroke-width:0;stroke-miterlimit:4;stroke-opacity:1;stroke-dasharray:none"
       d="m 179.0625,63.625 -23.5,13.5625 c 0.0228,0.0715 0.0394,0.147312 0.0625,0.21875 0.35693,1.10462 0.83054,2.16102 1.5,3.125 0.5736,0.82601 1.23452,1.597395 1.96875,2.3125 0.73423,0.715105 1.54265,1.3722 2.4375,1.96875 0.91777,0.596565 1.88205,1.134859 2.9375,1.59375 1.05545,0.458891 2.18186,0.83504 3.375,1.15625 1.1931,0.321235 2.43385,0.561961 3.71875,0.71875 1.2849,0.156789 2.6233,0.21876 4,0.21875 2.75329,2e-5 5.268,-0.27843 7.5625,-0.875 1.1472,-0.321215 2.22831,-0.716479 3.21875,-1.15625 0.99044,-0.439771 1.89272,-0.91807 2.71875,-1.46875 0.82597,-0.573605 1.53101,-1.182184 2.15625,-1.84375 0.62524,-0.661566 1.15777,-1.39907 1.59375,-2.15625 0.45886,-0.780105 0.82541,-1.584729 1.0625,-2.4375 0.23709,-0.852771 0.34372,-1.73845 0.34375,-2.65625 -2e-5,-0.803053 -0.0844,-1.55635 -0.25,-2.28125 -0.16564,-0.7249 -0.38892,-1.415273 -0.71875,-2.0625 -0.32983,-0.647227 -0.75742,-1.273718 -1.25,-1.84375 -0.49258,-0.570032 -1.06484,-1.100435 -1.71875,-1.59375 -0.98417,-0.75567 -2.42406,-1.40105 -3.90625,-2.0625 -1.19405,-0.532865 -2.50941,-1.048184 -3.96875,-1.53125 -0.99386,-0.328984 -2.18598,-0.609915 -3.34375,-0.90625 z m 35.625,13.1875 c -0.11663,1.201195 -0.13002,2.455854 -0.375,3.59375 -0.46845,2.175909 -1.18431,4.237225 -2.125,6.1875 -0.94077,1.927345 -2.09716,3.691742 -3.4375,5.34375 -0.82064,1.011463 -1.87216,1.873003 -2.84375,2.78125 L 225,94.625 214.6875,76.8125 z"
       id="path3873"
       transform="translate(165.7204,426.18452)"
       inkscape:connector-curvature="0" />
    <path
       style="fill:#4b78ff;fill-opacity:1;stroke:#4b9bff;stroke-width:0;stroke-miterlimit:4;stroke-opacity:1;stroke-dasharray:none"
       d="m 196.96875,50.46875 c -2.65862,1.47326 -13.71423,8.119887 -34.625,20.875 C 142.04372,83.72633 126.63827,93.207756 125.53125,94 l -0.40625,0.71875 c 1.22842,-0.471242 61.83032,-30.48523 71.84375,-35.5625 l 0,-8.6875 z"
       id="path3973"
       transform="translate(165.7204,426.18452)"
       inkscape:connector-curvature="0" />
    <path
       style="fill:#1a1c22;fill-opacity:1;stroke:#1a00e5;stroke-width:0;stroke-miterlimit:4;stroke-opacity:1;stroke-dasharray:none"
       d="m 148.5,54.0625 c 1.27571,0.845489 2.60111,1.657023 4.09375,2.375 1.70901,0.822057 3.56928,1.563909 5.5625,2.21875 1.99322,0.654841 4.129,1.231184 6.40625,1.71875 L 177.5,63.1875 c 1.84047,0.41058 3.44691,0.860684 4.90625,1.34375 1.45934,0.483066 2.7747,0.998385 3.96875,1.53125 1.48219,0.66145 2.92208,1.30683 3.90625,2.0625 0.65391,0.493315 1.22617,1.023718 1.71875,1.59375 0.49258,0.570032 0.92017,1.196523 1.25,1.84375 0.32983,0.647227 0.55311,1.3376 0.71875,2.0625 0.16564,0.7249 0.24998,1.478197 0.25,2.28125 -3e-5,0.9178 -0.10666,1.803479 -0.34375,2.65625 -0.23709,0.852771 -0.60364,1.657395 -1.0625,2.4375 -0.43598,0.75718 -0.96851,1.494684 -1.59375,2.15625 -0.62524,0.661566 -1.33028,1.270145 -2.15625,1.84375 -0.82603,0.55068 -1.72831,1.028979 -2.71875,1.46875 -0.99044,0.439771 -2.07155,0.835035 -3.21875,1.15625 -2.2945,0.59657 -4.80921,0.87502 -7.5625,0.875 -1.3767,1e-5 -2.7151,-0.06196 -4,-0.21875 -1.2849,-0.156789 -2.52565,-0.397515 -3.71875,-0.71875 -1.19314,-0.32121 -2.31955,-0.697359 -3.375,-1.15625 -1.05545,-0.458891 -2.01973,-0.997185 -2.9375,-1.59375 -0.89485,-0.59655 -1.70327,-1.253645 -2.4375,-1.96875 -0.73423,-0.715105 -1.39515,-1.48649 -1.96875,-2.3125 -0.66946,-0.96398 -1.14307,-2.02038 -1.5,-3.125 -0.25474,-0.78839 -0.4982,-1.57748 -0.59375,-2.4375 l -18.53125,0 c -0.39864,0.693261 -0.88661,1.492989 -1.25,2.125 0.10352,0.92082 0.15694,1.873282 0.34375,2.75 0.33103,1.553584 0.78991,3.02247 1.3125,4.46875 0.39305,1.08781 0.69202,2.23418 1.21875,3.25 0.96366,1.83557 2.09716,3.52396 3.4375,5.09375 0.71018,0.831754 1.62075,1.523289 2.4375,2.28125 l 8.65625,0 c 15.21016,-0.01863 37.71016,-0.1089 50,-0.1875 l 3.25,-0.03125 c 0.97159,-0.908247 2.02311,-1.769787 2.84375,-2.78125 1.34034,-1.652008 2.49673,-3.416405 3.4375,-5.34375 0.94069,-1.950275 1.65655,-4.011591 2.125,-6.1875 0.24498,-1.137896 0.25837,-2.392555 0.375,-3.59375 l -14.34375,-24.75 c -0.81395,-1.40435 -0.70442,-1.221245 -1.5,-2.59375 -1.689,-0.759768 -3.50955,-1.461719 -5.5,-2.09375 -2.13766,-0.678776 -4.42827,-1.28475 -6.90625,-1.8125 l -12.03125,-2.53125 c -2.86809,-0.642415 -5.35528,-1.366576 -7.4375,-2.15625 -2.08222,-0.789674 -3.77762,-1.65299 -5.0625,-2.59375 -0.63098,-0.470348 -1.1823,-0.986326 -1.65625,-1.53125 -0.38779,-0.445858 -0.65513,-0.941715 -0.9375,-1.4375 l -8.59375,14.90625 c -1.17866,2.048699 -1.07868,1.861999 -2.21875,3.84375 z"
       id="path3833"
       transform="translate(165.7204,426.18452)"
       inkscape:connector-curvature="0" />
    <path
       style="fill:#ffff49;fill-opacity:1;stroke:#1a00e5;stroke-width:0;stroke-miterlimit:4;stroke-opacity:1;stroke-dasharray:none"
       d="M 179.0625,63.625 C 178.52025,63.486209 178.08705,63.318462 177.5,63.1875 L 164.5625,60.375 c -2.27725,-0.487566 -4.41303,-1.063909 -6.40625,-1.71875 -1.99322,-0.654841 -3.85349,-1.396693 -5.5625,-2.21875 -1.49264,-0.717977 -2.81804,-1.529511 -4.09375,-2.375 -6.19221,10.763693 -8.10208,14.127529 -12,20.90625 l 18.53125,0 c 0.0869,0.782091 0.30247,1.501159 0.53125,2.21875 l 23.5,-13.5625 z"
       id="path3875"
       transform="translate(165.7204,426.18452)"
       inkscape:connector-curvature="0" />
    <path
       style="fill:#ffff49;fill-opacity:1;stroke:#1a00e5;stroke-width:0;stroke-miterlimit:4;stroke-opacity:1;stroke-dasharray:none"
       d="m 138.03125,87.3125 c -0.45563,-0.955187 -0.76218,-1.995868 -1.125,-3 -0.52259,-1.44628 -0.98147,-2.915166 -1.3125,-4.46875 -0.18681,-0.876718 -0.24023,-1.82918 -0.34375,-2.75 -2.80419,4.877082 -9.30567,16.212692 -9.46875,16.5 l -0.6875,1.1875 12.9375,-7.46875 z"
       id="path3879"
       transform="translate(165.7204,426.18452)"
       inkscape:connector-curvature="0" />
    <path
       style="fill:#ffff49;fill-opacity:1;stroke:#1a00e5;stroke-width:0;stroke-miterlimit:4;stroke-opacity:1;stroke-dasharray:none"
       d="m 175.28125,18.5625 c -2.50097,8.8e-5 -4.7767,0.310443 -6.84375,0.875 l -9.125,15.875 c 0.28237,0.495785 0.54971,0.991642 0.9375,1.4375 0.47395,0.544924 1.02527,1.060902 1.65625,1.53125 1.28488,0.94076 2.98028,1.804076 5.0625,2.59375 2.08222,0.789674 4.56941,1.513835 7.4375,2.15625 l 12.03125,2.53125 c 2.47798,0.52775 4.76859,1.133724 6.90625,1.8125 1.99045,0.632031 3.811,1.333982 5.5,2.09375 -9.25789,-15.971291 -13.97174,-24.085655 -17.5,-30.15625 -0.75655,-0.184232 -1.50317,-0.388457 -2.3125,-0.5 -1.19312,-0.164436 -2.44218,-0.249955 -3.75,-0.25 z"
       id="path3861"
       transform="translate(165.7204,426.18452)"
       inkscape:connector-curvature="0" />
  </g>
</svg>
